<svg width="476" height="292" viewBox="0 0 476 292" fill="none" xmlns="http://www.w3.org/2000/svg">
<path d="M44.6172 29.5664C44.6172 34.6055 43.7266 39.0234 41.9453 42.8203C40.1641 46.6172 37.6094 49.5469 34.2812 51.6094C30.9766 53.6719 27.1797 54.7031 22.8906 54.7031C18.6484 54.7031 14.8633 53.6836 11.5352 51.6445C8.20703 49.6055 5.62891 46.6992 3.80078 42.9258C1.97266 39.1289 1.04688 34.7695 1.02344 29.8477V27.3164C1.02344 22.2773 1.92578 17.8477 3.73047 14.0273C5.55859 10.1836 8.125 7.24219 11.4297 5.20312C14.7578 3.14062 18.5547 2.10938 22.8203 2.10938C27.0859 2.10938 30.8711 3.14062 34.1758 5.20312C37.5039 7.24219 40.0703 10.1836 41.875 14.0273C43.7031 17.8477 44.6172 22.2656 44.6172 27.2812V29.5664ZM33.9297 27.2461C33.9297 21.8789 32.9688 17.8008 31.0469 15.0117C29.125 12.2227 26.3828 10.8281 22.8203 10.8281C19.2812 10.8281 16.5508 12.2109 14.6289 14.9766C12.707 17.7188 11.7344 21.75 11.7109 27.0703V29.5664C11.7109 34.793 12.6719 38.8477 14.5938 41.7305C16.5156 44.6133 19.2812 46.0547 22.8906 46.0547C26.4297 46.0547 29.1484 44.6719 31.0469 41.9062C32.9453 39.1172 33.9062 35.0625 33.9297 29.7422V27.2461ZM60.9648 15.9609L61.2812 20.3555C64 16.957 67.6445 15.2578 72.2148 15.2578C76.2461 15.2578 79.2461 16.4414 81.2148 18.8086C83.1836 21.1758 84.1914 24.7148 84.2383 29.4258V54H74.0781V29.6719C74.0781 27.5156 73.6094 25.957 72.6719 24.9961C71.7344 24.0117 70.1758 23.5195 67.9961 23.5195C65.1367 23.5195 62.9922 24.7383 61.5625 27.1758V54H51.4023V15.9609H60.9648ZM102.695 54H92.5V0H102.695V54ZM121.82 54H111.625V15.9609H121.82V54ZM111.027 6.11719C111.027 4.59375 111.531 3.33984 112.539 2.35547C113.57 1.37109 114.965 0.878906 116.723 0.878906C118.457 0.878906 119.84 1.37109 120.871 2.35547C121.902 3.33984 122.418 4.59375 122.418 6.11719C122.418 7.66406 121.891 8.92969 120.836 9.91406C119.805 10.8984 118.434 11.3906 116.723 11.3906C115.012 11.3906 113.629 10.8984 112.574 9.91406C111.543 8.92969 111.027 7.66406 111.027 6.11719ZM139.574 15.9609L139.891 20.3555C142.609 16.957 146.254 15.2578 150.824 15.2578C154.855 15.2578 157.855 16.4414 159.824 18.8086C161.793 21.1758 162.801 24.7148 162.848 29.4258V54H152.688V29.6719C152.688 27.5156 152.219 25.957 151.281 24.9961C150.344 24.0117 148.785 23.5195 146.605 23.5195C143.746 23.5195 141.602 24.7383 140.172 27.1758V54H130.012V15.9609H139.574ZM188.09 54.7031C182.512 54.7031 177.965 52.9922 174.449 49.5703C170.957 46.1484 169.211 41.5898 169.211 35.8945V34.9102C169.211 31.0898 169.949 27.6797 171.426 24.6797C172.902 21.6562 174.988 19.3359 177.684 17.7188C180.402 16.0781 183.496 15.2578 186.965 15.2578C192.168 15.2578 196.258 16.8984 199.234 20.1797C202.234 23.4609 203.734 28.1133 203.734 34.1367V38.2852H179.512C179.84 40.7695 180.824 42.7617 182.465 44.2617C184.129 45.7617 186.227 46.5117 188.758 46.5117C192.672 46.5117 195.73 45.0938 197.934 42.2578L202.926 47.8477C201.402 50.0039 199.34 51.6914 196.738 52.9102C194.137 54.1055 191.254 54.7031 188.09 54.7031ZM186.93 23.4844C184.914 23.4844 183.273 24.1641 182.008 25.5234C180.766 26.8828 179.969 28.8281 179.617 31.3594H193.75V30.5508C193.703 28.3008 193.094 26.5664 191.922 25.3477C190.75 24.1055 189.086 23.4844 186.93 23.4844ZM268.316 36.9492C267.918 42.457 265.879 46.793 262.199 49.957C258.543 53.1211 253.715 54.7031 247.715 54.7031C241.152 54.7031 235.984 52.5 232.211 48.0938C228.461 43.6641 226.586 37.5938 226.586 29.8828V26.7539C226.586 21.832 227.453 17.4961 229.188 13.7461C230.922 9.99609 233.395 7.125 236.605 5.13281C239.84 3.11719 243.59 2.10938 247.855 2.10938C253.762 2.10938 258.52 3.69141 262.129 6.85547C265.738 10.0195 267.824 14.4609 268.387 20.1797H257.84C257.582 16.875 256.656 14.4844 255.062 13.0078C253.492 11.5078 251.09 10.7578 247.855 10.7578C244.34 10.7578 241.703 12.0234 239.945 14.5547C238.211 17.0625 237.32 20.9648 237.273 26.2617V30.1289C237.273 35.6602 238.105 39.7031 239.77 42.2578C241.457 44.8125 244.105 46.0898 247.715 46.0898C250.973 46.0898 253.398 45.3516 254.992 43.875C256.609 42.375 257.535 40.0664 257.77 36.9492H268.316ZM285.297 54H275.102V0H285.297V54ZM315.742 54C315.273 53.0859 314.934 51.9492 314.723 50.5898C312.262 53.332 309.062 54.7031 305.125 54.7031C301.398 54.7031 298.305 53.625 295.844 51.4688C293.406 49.3125 292.188 46.5938 292.188 43.3125C292.188 39.2812 293.676 36.1875 296.652 34.0312C299.652 31.875 303.977 30.7852 309.625 30.7617H314.301V28.582C314.301 26.8242 313.844 25.418 312.93 24.3633C312.039 23.3086 310.621 22.7812 308.676 22.7812C306.965 22.7812 305.617 23.1914 304.633 24.0117C303.672 24.832 303.191 25.957 303.191 27.3867H293.031C293.031 25.1836 293.711 23.1445 295.07 21.2695C296.43 19.3945 298.352 17.9297 300.836 16.875C303.32 15.7969 306.109 15.2578 309.203 15.2578C313.891 15.2578 317.605 16.4414 320.348 18.8086C323.113 21.1523 324.496 24.457 324.496 28.7227V45.2109C324.52 48.8203 325.023 51.5508 326.008 53.4023V54H315.742ZM307.34 46.9336C308.84 46.9336 310.223 46.6055 311.488 45.9492C312.754 45.2695 313.691 44.3672 314.301 43.2422V36.7031H310.504C305.418 36.7031 302.711 38.4609 302.383 41.9766L302.348 42.5742C302.348 43.8398 302.793 44.8828 303.684 45.7031C304.574 46.5234 305.793 46.9336 307.34 46.9336ZM352.902 43.4883C352.902 42.2461 352.281 41.2734 351.039 40.5703C349.82 39.8438 347.852 39.1992 345.133 38.6367C336.086 36.7383 331.562 32.8945 331.562 27.1055C331.562 23.7305 332.957 20.918 335.746 18.668C338.559 16.3945 342.227 15.2578 346.75 15.2578C351.578 15.2578 355.434 16.3945 358.316 18.668C361.223 20.9414 362.676 23.8945 362.676 27.5273H352.516C352.516 26.0742 352.047 24.8789 351.109 23.9414C350.172 22.9805 348.707 22.5 346.715 22.5C345.004 22.5 343.68 22.8867 342.742 23.6602C341.805 24.4336 341.336 25.418 341.336 26.6133C341.336 27.7383 341.863 28.6523 342.918 29.3555C343.996 30.0352 345.801 30.6328 348.332 31.1484C350.863 31.6406 352.996 32.2031 354.73 32.8359C360.098 34.8047 362.781 38.2148 362.781 43.0664C362.781 46.5352 361.293 49.3477 358.316 51.5039C355.34 53.6367 351.496 54.7031 346.785 54.7031C343.598 54.7031 340.762 54.1406 338.277 53.0156C335.816 51.8672 333.883 50.3086 332.477 48.3398C331.07 46.3477 330.367 44.2031 330.367 41.9062H340C340.094 43.7109 340.762 45.0938 342.004 46.0547C343.246 47.0156 344.91 47.4961 346.996 47.4961C348.941 47.4961 350.406 47.1328 351.391 46.4062C352.398 45.6562 352.902 44.6836 352.902 43.4883ZM389.957 43.4883C389.957 42.2461 389.336 41.2734 388.094 40.5703C386.875 39.8438 384.906 39.1992 382.188 38.6367C373.141 36.7383 368.617 32.8945 368.617 27.1055C368.617 23.7305 370.012 20.918 372.801 18.668C375.613 16.3945 379.281 15.2578 383.805 15.2578C388.633 15.2578 392.488 16.3945 395.371 18.668C398.277 20.9414 399.73 23.8945 399.73 27.5273H389.57C389.57 26.0742 389.102 24.8789 388.164 23.9414C387.227 22.9805 385.762 22.5 383.77 22.5C382.059 22.5 380.734 22.8867 379.797 23.6602C378.859 24.4336 378.391 25.418 378.391 26.6133C378.391 27.7383 378.918 28.6523 379.973 29.3555C381.051 30.0352 382.855 30.6328 385.387 31.1484C387.918 31.6406 390.051 32.2031 391.785 32.8359C397.152 34.8047 399.836 38.2148 399.836 43.0664C399.836 46.5352 398.348 49.3477 395.371 51.5039C392.395 53.6367 388.551 54.7031 383.84 54.7031C380.652 54.7031 377.816 54.1406 375.332 53.0156C372.871 51.8672 370.938 50.3086 369.531 48.3398C368.125 46.3477 367.422 44.2031 367.422 41.9062H377.055C377.148 43.7109 377.816 45.0938 379.059 46.0547C380.301 47.0156 381.965 47.4961 384.051 47.4961C385.996 47.4961 387.461 47.1328 388.445 46.4062C389.453 45.6562 389.957 44.6836 389.957 43.4883ZM423.918 54.7031C418.34 54.7031 413.793 52.9922 410.277 49.5703C406.785 46.1484 405.039 41.5898 405.039 35.8945V34.9102C405.039 31.0898 405.777 27.6797 407.254 24.6797C408.73 21.6562 410.816 19.3359 413.512 17.7188C416.23 16.0781 419.324 15.2578 422.793 15.2578C427.996 15.2578 432.086 16.8984 435.062 20.1797C438.062 23.4609 439.562 28.1133 439.562 34.1367V38.2852H415.34C415.668 40.7695 416.652 42.7617 418.293 44.2617C419.957 45.7617 422.055 46.5117 424.586 46.5117C428.5 46.5117 431.559 45.0938 433.762 42.2578L438.754 47.8477C437.23 50.0039 435.168 51.6914 432.566 52.9102C429.965 54.1055 427.082 54.7031 423.918 54.7031ZM422.758 23.4844C420.742 23.4844 419.102 24.1641 417.836 25.5234C416.594 26.8828 415.797 28.8281 415.445 31.3594H429.578V30.5508C429.531 28.3008 428.922 26.5664 427.75 25.3477C426.578 24.1055 424.914 23.4844 422.758 23.4844ZM465.965 43.4883C465.965 42.2461 465.344 41.2734 464.102 40.5703C462.883 39.8438 460.914 39.1992 458.195 38.6367C449.148 36.7383 444.625 32.8945 444.625 27.1055C444.625 23.7305 446.02 20.918 448.809 18.668C451.621 16.3945 455.289 15.2578 459.812 15.2578C464.641 15.2578 468.496 16.3945 471.379 18.668C474.285 20.9414 475.738 23.8945 475.738 27.5273H465.578C465.578 26.0742 465.109 24.8789 464.172 23.9414C463.234 22.9805 461.77 22.5 459.777 22.5C458.066 22.5 456.742 22.8867 455.805 23.6602C454.867 24.4336 454.398 25.418 454.398 26.6133C454.398 27.7383 454.926 28.6523 455.98 29.3555C457.059 30.0352 458.863 30.6328 461.395 31.1484C463.926 31.6406 466.059 32.2031 467.793 32.8359C473.16 34.8047 475.844 38.2148 475.844 43.0664C475.844 46.5352 474.355 49.3477 471.379 51.5039C468.402 53.6367 464.559 54.7031 459.848 54.7031C456.66 54.7031 453.824 54.1406 451.34 53.0156C448.879 51.8672 446.945 50.3086 445.539 48.3398C444.133 46.3477 443.43 44.2031 443.43 41.9062H453.062C453.156 43.7109 453.824 45.0938 455.066 46.0547C456.309 47.0156 457.973 47.4961 460.059 47.4961C462.004 47.4961 463.469 47.1328 464.453 46.4062C465.461 45.6562 465.965 44.6836 465.965 43.4883ZM11.4297 94.9609L11.7461 99.2148C14.4414 95.9102 18.0859 94.2578 22.6797 94.2578C27.5781 94.2578 30.9414 96.1914 32.7695 100.059C35.4414 96.1914 39.25 94.2578 44.1953 94.2578C48.3203 94.2578 51.3906 95.4648 53.4062 97.8789C55.4219 100.27 56.4297 103.879 56.4297 108.707V133H46.2344V108.742C46.2344 106.586 45.8125 105.016 44.9688 104.031C44.125 103.023 42.6367 102.52 40.5039 102.52C37.457 102.52 35.3477 103.973 34.1758 106.879L34.2109 133H24.0508V108.777C24.0508 106.574 23.6172 104.98 22.75 103.996C21.8828 103.012 20.4062 102.52 18.3203 102.52C15.4375 102.52 13.3516 103.715 12.0625 106.105V133H1.90234V94.9609H11.4297ZM86.3125 133C85.8438 132.086 85.5039 130.949 85.293 129.59C82.832 132.332 79.6328 133.703 75.6953 133.703C71.9688 133.703 68.875 132.625 66.4141 130.469C63.9766 128.312 62.7578 125.594 62.7578 122.312C62.7578 118.281 64.2461 115.188 67.2227 113.031C70.2227 110.875 74.5469 109.785 80.1953 109.762H84.8711V107.582C84.8711 105.824 84.4141 104.418 83.5 103.363C82.6094 102.309 81.1914 101.781 79.2461 101.781C77.5352 101.781 76.1875 102.191 75.2031 103.012C74.2422 103.832 73.7617 104.957 73.7617 106.387H63.6016C63.6016 104.184 64.2812 102.145 65.6406 100.27C67 98.3945 68.9219 96.9297 71.4062 95.875C73.8906 94.7969 76.6797 94.2578 79.7734 94.2578C84.4609 94.2578 88.1758 95.4414 90.918 97.8086C93.6836 100.152 95.0664 103.457 95.0664 107.723V124.211C95.0898 127.82 95.5938 130.551 96.5781 132.402V133H86.3125ZM77.9102 125.934C79.4102 125.934 80.793 125.605 82.0586 124.949C83.3242 124.27 84.2617 123.367 84.8711 122.242V115.703H81.0742C75.9883 115.703 73.2812 117.461 72.9531 120.977L72.918 121.574C72.918 122.84 73.3633 123.883 74.2539 124.703C75.1445 125.523 76.3633 125.934 77.9102 125.934ZM101.289 113.699C101.289 107.77 102.613 103.047 105.262 99.5312C107.934 96.0156 111.578 94.2578 116.195 94.2578C119.898 94.2578 122.957 95.6406 125.371 98.4062V79H135.566V133H126.391L125.898 128.957C123.367 132.121 120.109 133.703 116.125 133.703C111.648 133.703 108.051 131.945 105.332 128.43C102.637 124.891 101.289 119.98 101.289 113.699ZM111.449 114.438C111.449 118 112.07 120.73 113.312 122.629C114.555 124.527 116.359 125.477 118.727 125.477C121.867 125.477 124.082 124.152 125.371 121.504V106.492C124.105 103.844 121.914 102.52 118.797 102.52C113.898 102.52 111.449 106.492 111.449 114.438ZM160.949 133.703C155.371 133.703 150.824 131.992 147.309 128.57C143.816 125.148 142.07 120.59 142.07 114.895V113.91C142.07 110.09 142.809 106.68 144.285 103.68C145.762 100.656 147.848 98.3359 150.543 96.7188C153.262 95.0781 156.355 94.2578 159.824 94.2578C165.027 94.2578 169.117 95.8984 172.094 99.1797C175.094 102.461 176.594 107.113 176.594 113.137V117.285H152.371C152.699 119.77 153.684 121.762 155.324 123.262C156.988 124.762 159.086 125.512 161.617 125.512C165.531 125.512 168.59 124.094 170.793 121.258L175.785 126.848C174.262 129.004 172.199 130.691 169.598 131.91C166.996 133.105 164.113 133.703 160.949 133.703ZM159.789 102.484C157.773 102.484 156.133 103.164 154.867 104.523C153.625 105.883 152.828 107.828 152.477 110.359H166.609V109.551C166.562 107.301 165.953 105.566 164.781 104.348C163.609 103.105 161.945 102.484 159.789 102.484ZM384.367 212C383.898 211.086 383.559 209.949 383.348 208.59C380.887 211.332 377.688 212.703 373.75 212.703C370.023 212.703 366.93 211.625 364.469 209.469C362.031 207.312 360.812 204.594 360.812 201.312C360.812 197.281 362.301 194.188 365.277 192.031C368.277 189.875 372.602 188.785 378.25 188.762H382.926V186.582C382.926 184.824 382.469 183.418 381.555 182.363C380.664 181.309 379.246 180.781 377.301 180.781C375.59 180.781 374.242 181.191 373.258 182.012C372.297 182.832 371.816 183.957 371.816 185.387H361.656C361.656 183.184 362.336 181.145 363.695 179.27C365.055 177.395 366.977 175.93 369.461 174.875C371.945 173.797 374.734 173.258 377.828 173.258C382.516 173.258 386.23 174.441 388.973 176.809C391.738 179.152 393.121 182.457 393.121 186.723V203.211C393.145 206.82 393.648 209.551 394.633 211.402V212H384.367ZM375.965 204.934C377.465 204.934 378.848 204.605 380.113 203.949C381.379 203.27 382.316 202.367 382.926 201.242V194.703H379.129C374.043 194.703 371.336 196.461 371.008 199.977L370.973 200.574C370.973 201.84 371.418 202.883 372.309 203.703C373.199 204.523 374.418 204.934 375.965 204.934ZM410.277 173.961L410.594 178.355C413.312 174.957 416.957 173.258 421.527 173.258C425.559 173.258 428.559 174.441 430.527 176.809C432.496 179.176 433.504 182.715 433.551 187.426V212H423.391V187.672C423.391 185.516 422.922 183.957 421.984 182.996C421.047 182.012 419.488 181.52 417.309 181.52C414.449 181.52 412.305 182.738 410.875 185.176V212H400.715V173.961H410.277ZM439.703 192.699C439.703 186.77 441.027 182.047 443.676 178.531C446.348 175.016 449.992 173.258 454.609 173.258C458.312 173.258 461.371 174.641 463.785 177.406V158H473.98V212H464.805L464.312 207.957C461.781 211.121 458.523 212.703 454.539 212.703C450.062 212.703 446.465 210.945 443.746 207.43C441.051 203.891 439.703 198.98 439.703 192.699ZM449.863 193.438C449.863 197 450.484 199.73 451.727 201.629C452.969 203.527 454.773 204.477 457.141 204.477C460.281 204.477 462.496 203.152 463.785 200.504V185.492C462.52 182.844 460.328 181.52 457.211 181.52C452.312 181.52 449.863 185.492 449.863 193.438Z" fill="black"/>
<path d="M217.832 133.703C212.254 133.703 207.707 131.992 204.191 128.57C200.699 125.148 198.953 120.59 198.953 114.895V113.91C198.953 110.09 199.691 106.68 201.168 103.68C202.645 100.656 204.73 98.3359 207.426 96.7188C210.145 95.0781 213.238 94.2578 216.707 94.2578C221.91 94.2578 226 95.8984 228.977 99.1797C231.977 102.461 233.477 107.113 233.477 113.137V117.285H209.254C209.582 119.77 210.566 121.762 212.207 123.262C213.871 124.762 215.969 125.512 218.5 125.512C222.414 125.512 225.473 124.094 227.676 121.258L232.668 126.848C231.145 129.004 229.082 130.691 226.48 131.91C223.879 133.105 220.996 133.703 217.832 133.703ZM216.672 102.484C214.656 102.484 213.016 103.164 211.75 104.523C210.508 105.883 209.711 107.828 209.359 110.359H223.492V109.551C223.445 107.301 222.836 105.566 221.664 104.348C220.492 103.105 218.828 102.484 216.672 102.484ZM261.32 133C260.852 132.086 260.512 130.949 260.301 129.59C257.84 132.332 254.641 133.703 250.703 133.703C246.977 133.703 243.883 132.625 241.422 130.469C238.984 128.312 237.766 125.594 237.766 122.312C237.766 118.281 239.254 115.188 242.23 113.031C245.23 110.875 249.555 109.785 255.203 109.762H259.879V107.582C259.879 105.824 259.422 104.418 258.508 103.363C257.617 102.309 256.199 101.781 254.254 101.781C252.543 101.781 251.195 102.191 250.211 103.012C249.25 103.832 248.77 104.957 248.77 106.387H238.609C238.609 104.184 239.289 102.145 240.648 100.27C242.008 98.3945 243.93 96.9297 246.414 95.875C248.898 94.7969 251.688 94.2578 254.781 94.2578C259.469 94.2578 263.184 95.4414 265.926 97.8086C268.691 100.152 270.074 103.457 270.074 107.723V124.211C270.098 127.82 270.602 130.551 271.586 132.402V133H261.32ZM252.918 125.934C254.418 125.934 255.801 125.605 257.066 124.949C258.332 124.27 259.27 123.367 259.879 122.242V115.703H256.082C250.996 115.703 248.289 117.461 247.961 120.977L247.926 121.574C247.926 122.84 248.371 123.883 249.262 124.703C250.152 125.523 251.371 125.934 252.918 125.934ZM298.48 122.488C298.48 121.246 297.859 120.273 296.617 119.57C295.398 118.844 293.43 118.199 290.711 117.637C281.664 115.738 277.141 111.895 277.141 106.105C277.141 102.73 278.535 99.918 281.324 97.668C284.137 95.3945 287.805 94.2578 292.328 94.2578C297.156 94.2578 301.012 95.3945 303.895 97.668C306.801 99.9414 308.254 102.895 308.254 106.527H298.094C298.094 105.074 297.625 103.879 296.688 102.941C295.75 101.98 294.285 101.5 292.293 101.5C290.582 101.5 289.258 101.887 288.32 102.66C287.383 103.434 286.914 104.418 286.914 105.613C286.914 106.738 287.441 107.652 288.496 108.355C289.574 109.035 291.379 109.633 293.91 110.148C296.441 110.641 298.574 111.203 300.309 111.836C305.676 113.805 308.359 117.215 308.359 122.066C308.359 125.535 306.871 128.348 303.895 130.504C300.918 132.637 297.074 133.703 292.363 133.703C289.176 133.703 286.34 133.141 283.855 132.016C281.395 130.867 279.461 129.309 278.055 127.34C276.648 125.348 275.945 123.203 275.945 120.906H285.578C285.672 122.711 286.34 124.094 287.582 125.055C288.824 126.016 290.488 126.496 292.574 126.496C294.52 126.496 295.984 126.133 296.969 125.406C297.977 124.656 298.48 123.684 298.48 122.488ZM329.137 118.621L336.168 94.9609H347.066L331.773 138.906L330.93 140.91C328.656 145.879 324.906 148.363 319.68 148.363C318.203 148.363 316.703 148.141 315.18 147.695V139.996L316.727 140.031C318.648 140.031 320.078 139.738 321.016 139.152C321.977 138.566 322.727 137.594 323.266 136.234L324.461 133.105L311.137 94.9609H322.07L329.137 118.621Z" fill="#888888"/>
<path d="M12.625 212H2.42969V173.961H12.625V212ZM1.83203 164.117C1.83203 162.594 2.33594 161.34 3.34375 160.355C4.375 159.371 5.76953 158.879 7.52734 158.879C9.26172 158.879 10.6445 159.371 11.6758 160.355C12.707 161.34 13.2227 162.594 13.2227 164.117C13.2227 165.664 12.6953 166.93 11.6406 167.914C10.6094 168.898 9.23828 169.391 7.52734 169.391C5.81641 169.391 4.43359 168.898 3.37891 167.914C2.34766 166.93 1.83203 165.664 1.83203 164.117ZM30.3789 173.961L30.6953 178.355C33.4141 174.957 37.0586 173.258 41.6289 173.258C45.6602 173.258 48.6602 174.441 50.6289 176.809C52.5977 179.176 53.6055 182.715 53.6523 187.426V212H43.4922V187.672C43.4922 185.516 43.0234 183.957 42.0859 182.996C41.1484 182.012 39.5898 181.52 37.4102 181.52C34.5508 181.52 32.4062 182.738 30.9766 185.176V212H20.8164V173.961H30.3789ZM73.5508 164.609V173.961H80.0547V181.414H73.5508V200.398C73.5508 201.805 73.8203 202.812 74.3594 203.422C74.8984 204.031 75.9297 204.336 77.4531 204.336C78.5781 204.336 79.5742 204.254 80.4414 204.09V211.789C78.4492 212.398 76.3984 212.703 74.2891 212.703C67.1641 212.703 63.5312 209.105 63.3906 201.91V181.414H57.8359V173.961H63.3906V164.609H73.5508ZM103.223 212.703C97.6445 212.703 93.0977 210.992 89.582 207.57C86.0898 204.148 84.3438 199.59 84.3438 193.895V192.91C84.3438 189.09 85.082 185.68 86.5586 182.68C88.0352 179.656 90.1211 177.336 92.8164 175.719C95.5352 174.078 98.6289 173.258 102.098 173.258C107.301 173.258 111.391 174.898 114.367 178.18C117.367 181.461 118.867 186.113 118.867 192.137V196.285H94.6445C94.9727 198.77 95.957 200.762 97.5977 202.262C99.2617 203.762 101.359 204.512 103.891 204.512C107.805 204.512 110.863 203.094 113.066 200.258L118.059 205.848C116.535 208.004 114.473 209.691 111.871 210.91C109.27 212.105 106.387 212.703 103.223 212.703ZM102.062 181.484C100.047 181.484 98.4062 182.164 97.1406 183.523C95.8984 184.883 95.1016 186.828 94.75 189.359H108.883V188.551C108.836 186.301 108.227 184.566 107.055 183.348C105.883 182.105 104.219 181.484 102.062 181.484ZM146.043 183.488C144.66 183.301 143.441 183.207 142.387 183.207C138.543 183.207 136.023 184.508 134.828 187.109V212H124.668V173.961H134.266L134.547 178.496C136.586 175.004 139.41 173.258 143.02 173.258C144.145 173.258 145.199 173.41 146.184 173.715L146.043 183.488ZM171.953 212C171.484 211.086 171.145 209.949 170.934 208.59C168.473 211.332 165.273 212.703 161.336 212.703C157.609 212.703 154.516 211.625 152.055 209.469C149.617 207.312 148.398 204.594 148.398 201.312C148.398 197.281 149.887 194.188 152.863 192.031C155.863 189.875 160.188 188.785 165.836 188.762H170.512V186.582C170.512 184.824 170.055 183.418 169.141 182.363C168.25 181.309 166.832 180.781 164.887 180.781C163.176 180.781 161.828 181.191 160.844 182.012C159.883 182.832 159.402 183.957 159.402 185.387H149.242C149.242 183.184 149.922 181.145 151.281 179.27C152.641 177.395 154.562 175.93 157.047 174.875C159.531 173.797 162.32 173.258 165.414 173.258C170.102 173.258 173.816 174.441 176.559 176.809C179.324 179.152 180.707 182.457 180.707 186.723V203.211C180.73 206.82 181.234 209.551 182.219 211.402V212H171.953ZM163.551 204.934C165.051 204.934 166.434 204.605 167.699 203.949C168.965 203.27 169.902 202.367 170.512 201.242V194.703H166.715C161.629 194.703 158.922 196.461 158.594 199.977L158.559 200.574C158.559 201.84 159.004 202.883 159.895 203.703C160.785 204.523 162.004 204.934 163.551 204.934ZM204.332 204.512C206.207 204.512 207.73 203.996 208.902 202.965C210.074 201.934 210.684 200.562 210.73 198.852H220.258C220.234 201.43 219.531 203.797 218.148 205.953C216.766 208.086 214.867 209.75 212.453 210.945C210.062 212.117 207.414 212.703 204.508 212.703C199.07 212.703 194.781 210.98 191.641 207.535C188.5 204.066 186.93 199.285 186.93 193.191V192.523C186.93 186.664 188.488 181.988 191.605 178.496C194.723 175.004 199 173.258 204.438 173.258C209.195 173.258 213.004 174.617 215.863 177.336C218.746 180.031 220.211 183.629 220.258 188.129H210.73C210.684 186.16 210.074 184.566 208.902 183.348C207.73 182.105 206.184 181.484 204.262 181.484C201.895 181.484 200.102 182.352 198.883 184.086C197.688 185.797 197.09 188.586 197.09 192.453V193.508C197.09 197.422 197.688 200.234 198.883 201.945C200.078 203.656 201.895 204.512 204.332 204.512ZM238.223 164.609V173.961H244.727V181.414H238.223V200.398C238.223 201.805 238.492 202.812 239.031 203.422C239.57 204.031 240.602 204.336 242.125 204.336C243.25 204.336 244.246 204.254 245.113 204.09V211.789C243.121 212.398 241.07 212.703 238.961 212.703C231.836 212.703 228.203 209.105 228.062 201.91V181.414H222.508V173.961H228.062V164.609H238.223ZM261.109 212H250.914V173.961H261.109V212ZM250.316 164.117C250.316 162.594 250.82 161.34 251.828 160.355C252.859 159.371 254.254 158.879 256.012 158.879C257.746 158.879 259.129 159.371 260.16 160.355C261.191 161.34 261.707 162.594 261.707 164.117C261.707 165.664 261.18 166.93 260.125 167.914C259.094 168.898 257.723 169.391 256.012 169.391C254.301 169.391 252.918 168.898 251.863 167.914C250.832 166.93 250.316 165.664 250.316 164.117ZM283.75 199.59L290.816 173.961H301.434L288.602 212H278.898L266.066 173.961H276.684L283.75 199.59ZM322.949 212.703C317.371 212.703 312.824 210.992 309.309 207.57C305.816 204.148 304.07 199.59 304.07 193.895V192.91C304.07 189.09 304.809 185.68 306.285 182.68C307.762 179.656 309.848 177.336 312.543 175.719C315.262 174.078 318.355 173.258 321.824 173.258C327.027 173.258 331.117 174.898 334.094 178.18C337.094 181.461 338.594 186.113 338.594 192.137V196.285H314.371C314.699 198.77 315.684 200.762 317.324 202.262C318.988 203.762 321.086 204.512 323.617 204.512C327.531 204.512 330.59 203.094 332.793 200.258L337.785 205.848C336.262 208.004 334.199 209.691 331.598 210.91C328.996 212.105 326.113 212.703 322.949 212.703ZM321.789 181.484C319.773 181.484 318.133 182.164 316.867 183.523C315.625 184.883 314.828 186.828 314.477 189.359H328.609V188.551C328.562 186.301 327.953 184.566 326.781 183.348C325.609 182.105 323.945 181.484 321.789 181.484ZM318.273 286.008C318.273 284.391 318.812 283.078 319.891 282.07C320.992 281.062 322.363 280.559 324.004 280.559C325.668 280.559 327.039 281.062 328.117 282.07C329.219 283.078 329.77 284.391 329.77 286.008C329.77 287.602 329.23 288.902 328.152 289.91C327.074 290.895 325.691 291.387 324.004 291.387C322.34 291.387 320.969 290.895 319.891 289.91C318.812 288.902 318.273 287.602 318.273 286.008Z" fill="#00CBE7"/>
<path d="M19.4102 291.703C13.832 291.703 9.28516 289.992 5.76953 286.57C2.27734 283.148 0.53125 278.59 0.53125 272.895V271.91C0.53125 268.09 1.26953 264.68 2.74609 261.68C4.22266 258.656 6.30859 256.336 9.00391 254.719C11.7227 253.078 14.8164 252.258 18.2852 252.258C23.4883 252.258 27.5781 253.898 30.5547 257.18C33.5547 260.461 35.0547 265.113 35.0547 271.137V275.285H10.832C11.1602 277.77 12.1445 279.762 13.7852 281.262C15.4492 282.762 17.5469 283.512 20.0781 283.512C23.9922 283.512 27.0508 282.094 29.2539 279.258L34.2461 284.848C32.7227 287.004 30.6602 288.691 28.0586 289.91C25.457 291.105 22.5742 291.703 19.4102 291.703ZM18.25 260.484C16.2344 260.484 14.5938 261.164 13.3281 262.523C12.0859 263.883 11.2891 265.828 10.9375 268.359H25.0703V267.551C25.0234 265.301 24.4141 263.566 23.2422 262.348C22.0703 261.105 20.4062 260.484 18.25 260.484ZM43.6328 291V260.414H37.9727V252.961H43.6328V249.727C43.6328 245.461 44.8516 242.156 47.2891 239.812C49.75 237.445 53.1836 236.262 57.5898 236.262C58.9961 236.262 60.7188 236.496 62.7578 236.965L62.6523 244.84C61.8086 244.629 60.7773 244.523 59.5586 244.523C55.7383 244.523 53.8281 246.316 53.8281 249.902V252.961H61.3867V260.414H53.8281V291H43.6328ZM69.4375 291V260.414H63.7773V252.961H69.4375V249.727C69.4375 245.461 70.6562 242.156 73.0938 239.812C75.5547 237.445 78.9883 236.262 83.3945 236.262C84.8008 236.262 86.5234 236.496 88.5625 236.965L88.457 244.84C87.6133 244.629 86.582 244.523 85.3633 244.523C81.543 244.523 79.6328 246.316 79.6328 249.902V252.961H87.1914V260.414H79.6328V291H69.4375ZM90.8828 271.629C90.8828 267.855 91.6094 264.492 93.0625 261.539C94.5156 258.586 96.6016 256.301 99.3203 254.684C102.062 253.066 105.238 252.258 108.848 252.258C113.98 252.258 118.164 253.828 121.398 256.969C124.656 260.109 126.473 264.375 126.848 269.766L126.918 272.367C126.918 278.203 125.289 282.891 122.031 286.43C118.773 289.945 114.402 291.703 108.918 291.703C103.434 291.703 99.0508 289.945 95.7695 286.43C92.5117 282.914 90.8828 278.133 90.8828 272.086V271.629ZM101.043 272.367C101.043 275.977 101.723 278.742 103.082 280.664C104.441 282.562 106.387 283.512 108.918 283.512C111.379 283.512 113.301 282.574 114.684 280.699C116.066 278.801 116.758 275.777 116.758 271.629C116.758 268.09 116.066 265.348 114.684 263.402C113.301 261.457 111.355 260.484 108.848 260.484C106.363 260.484 104.441 261.457 103.082 263.402C101.723 265.324 101.043 268.312 101.043 272.367ZM154.551 262.488C153.168 262.301 151.949 262.207 150.895 262.207C147.051 262.207 144.531 263.508 143.336 266.109V291H133.176V252.961H142.773L143.055 257.496C145.094 254.004 147.918 252.258 151.527 252.258C152.652 252.258 153.707 252.41 154.691 252.715L154.551 262.488ZM173.395 243.609V252.961H179.898V260.414H173.395V279.398C173.395 280.805 173.664 281.812 174.203 282.422C174.742 283.031 175.773 283.336 177.297 283.336C178.422 283.336 179.418 283.254 180.285 283.09V290.789C178.293 291.398 176.242 291.703 174.133 291.703C167.008 291.703 163.375 288.105 163.234 280.91V260.414H157.68V252.961H163.234V243.609H173.395ZM196.281 291H186.086V237H196.281V291ZM222.191 291.703C216.613 291.703 212.066 289.992 208.551 286.57C205.059 283.148 203.312 278.59 203.312 272.895V271.91C203.312 268.09 204.051 264.68 205.527 261.68C207.004 258.656 209.09 256.336 211.785 254.719C214.504 253.078 217.598 252.258 221.066 252.258C226.27 252.258 230.359 253.898 233.336 257.18C236.336 260.461 237.836 265.113 237.836 271.137V275.285H213.613C213.941 277.77 214.926 279.762 216.566 281.262C218.23 282.762 220.328 283.512 222.859 283.512C226.773 283.512 229.832 282.094 232.035 279.258L237.027 284.848C235.504 287.004 233.441 288.691 230.84 289.91C228.238 291.105 225.355 291.703 222.191 291.703ZM221.031 260.484C219.016 260.484 217.375 261.164 216.109 262.523C214.867 263.883 214.07 265.828 213.719 268.359H227.852V267.551C227.805 265.301 227.195 263.566 226.023 262.348C224.852 261.105 223.188 260.484 221.031 260.484ZM264.238 280.488C264.238 279.246 263.617 278.273 262.375 277.57C261.156 276.844 259.188 276.199 256.469 275.637C247.422 273.738 242.898 269.895 242.898 264.105C242.898 260.73 244.293 257.918 247.082 255.668C249.895 253.395 253.562 252.258 258.086 252.258C262.914 252.258 266.77 253.395 269.652 255.668C272.559 257.941 274.012 260.895 274.012 264.527H263.852C263.852 263.074 263.383 261.879 262.445 260.941C261.508 259.98 260.043 259.5 258.051 259.5C256.34 259.5 255.016 259.887 254.078 260.66C253.141 261.434 252.672 262.418 252.672 263.613C252.672 264.738 253.199 265.652 254.254 266.355C255.332 267.035 257.137 267.633 259.668 268.148C262.199 268.641 264.332 269.203 266.066 269.836C271.434 271.805 274.117 275.215 274.117 280.066C274.117 283.535 272.629 286.348 269.652 288.504C266.676 290.637 262.832 291.703 258.121 291.703C254.934 291.703 252.098 291.141 249.613 290.016C247.152 288.867 245.219 287.309 243.812 285.34C242.406 283.348 241.703 281.203 241.703 278.906H251.336C251.43 280.711 252.098 282.094 253.34 283.055C254.582 284.016 256.246 284.496 258.332 284.496C260.277 284.496 261.742 284.133 262.727 283.406C263.734 282.656 264.238 281.684 264.238 280.488ZM301.293 280.488C301.293 279.246 300.672 278.273 299.43 277.57C298.211 276.844 296.242 276.199 293.523 275.637C284.477 273.738 279.953 269.895 279.953 264.105C279.953 260.73 281.348 257.918 284.137 255.668C286.949 253.395 290.617 252.258 295.141 252.258C299.969 252.258 303.824 253.395 306.707 255.668C309.613 257.941 311.066 260.895 311.066 264.527H300.906C300.906 263.074 300.438 261.879 299.5 260.941C298.562 259.98 297.098 259.5 295.105 259.5C293.395 259.5 292.07 259.887 291.133 260.66C290.195 261.434 289.727 262.418 289.727 263.613C289.727 264.738 290.254 265.652 291.309 266.355C292.387 267.035 294.191 267.633 296.723 268.148C299.254 268.641 301.387 269.203 303.121 269.836C308.488 271.805 311.172 275.215 311.172 280.066C311.172 283.535 309.684 286.348 306.707 288.504C303.73 290.637 299.887 291.703 295.176 291.703C291.988 291.703 289.152 291.141 286.668 290.016C284.207 288.867 282.273 287.309 280.867 285.34C279.461 283.348 278.758 281.203 278.758 278.906H288.391C288.484 280.711 289.152 282.094 290.395 283.055C291.637 284.016 293.301 284.496 295.387 284.496C297.332 284.496 298.797 284.133 299.781 283.406C300.789 282.656 301.293 281.684 301.293 280.488Z" fill="#626262"/>
</svg>
