<svg width="614" height="432" viewBox="0 0 614 432" fill="none" xmlns="http://www.w3.org/2000/svg">
<g clip-path="url(#clip0)">
<path d="M613.113 428.687H0.887283C0.651961 428.687 0.426276 428.596 0.259879 428.434C0.0934807 428.272 0 428.052 0 427.823C0 427.594 0.0934807 427.374 0.259879 427.212C0.426276 427.05 0.651961 426.958 0.887283 426.958H613.113C613.348 426.958 613.574 427.05 613.74 427.212C613.907 427.374 614 427.594 614 427.823C614 428.052 613.907 428.272 613.74 428.434C613.574 428.596 613.348 428.687 613.113 428.687Z" fill="#CCCCCC"/>
<path d="M552.515 277.967H192.278C190.749 277.967 189.282 278.559 188.2 279.612C187.118 280.665 186.511 282.094 186.511 283.584C186.511 285.074 187.118 286.503 188.2 287.556C189.282 288.61 190.749 289.201 192.278 289.201H202.482V423.587C202.482 425.076 203.09 426.505 204.171 427.559C205.253 428.612 206.72 429.204 208.249 429.204C209.779 429.204 211.246 428.612 212.327 427.559C213.409 426.505 214.017 425.076 214.017 423.587L214.104 289.201H529.889V423.587C529.889 425.076 530.497 426.505 531.579 427.559C532.66 428.612 534.127 429.204 535.657 429.204C537.186 429.204 538.653 428.612 539.735 427.559C540.817 426.505 541.424 425.076 541.424 423.587V292.163L543.102 289.201H552.515C554.045 289.201 555.512 288.61 556.593 287.556C557.675 286.503 558.283 285.074 558.283 283.584C558.283 282.094 557.675 280.665 556.593 279.612C555.512 278.559 554.045 277.967 552.515 277.967Z" fill="#CCCCCC"/>
<path d="M391.996 280.906H282.877C280.764 280.904 278.738 280.086 277.244 278.63C275.75 277.175 274.91 275.202 274.907 273.144V214.629C274.91 212.571 275.75 210.598 277.244 209.143C278.738 207.688 280.764 206.869 282.877 206.867H391.996C394.109 206.869 396.135 207.688 397.629 209.143C399.123 210.598 399.963 212.571 399.966 214.629V273.144C399.963 275.202 399.123 277.175 397.629 278.63C396.135 280.086 394.109 280.904 391.996 280.906Z" fill="#3F3D56"/>
<path d="M391.996 212.841H282.877C282.391 212.842 281.924 213.031 281.58 213.366C281.236 213.701 281.042 214.156 281.041 214.63V273.146C281.042 273.62 281.236 274.074 281.58 274.41C281.924 274.745 282.391 274.934 282.877 274.935H391.996C392.483 274.934 392.949 274.745 393.293 274.41C393.638 274.074 393.831 273.62 393.832 273.146V214.63C393.831 214.156 393.638 213.701 393.293 213.366C392.949 213.031 392.483 212.842 391.996 212.841Z" fill="white"/>
<path d="M346.743 254.27C346.743 254.27 333.68 251.338 326.496 256.713C319.311 262.088 335.64 274.304 335.64 274.304L346.743 254.27Z" fill="#2F2E41"/>
<path d="M338.076 248.73C344.882 248.73 350.398 243.357 350.398 236.729C350.398 230.101 344.882 224.728 338.076 224.728C331.271 224.728 325.755 230.101 325.755 236.729C325.755 243.357 331.271 248.73 338.076 248.73Z" fill="#A0616A"/>
<path d="M328.548 219.882C329.37 218.523 330.561 217.413 331.99 216.672C333.419 215.932 335.03 215.59 336.646 215.685C338.336 215.892 339.985 216.342 341.54 217.02L349.595 220.08C351.679 220.872 353.962 221.842 354.866 223.835C355.706 225.685 355.08 227.821 354.446 229.747L351.432 238.902C351.098 236.83 350.525 234.802 349.724 232.855C348.91 230.895 347.439 229.261 345.55 228.219C343.458 227.174 340.992 227.195 338.643 227.306C335.316 227.461 331.699 227.874 329.336 230.159C328.081 231.457 327.231 233.075 326.883 234.825C326.541 236.566 326.368 238.334 326.368 240.107C325.004 237.823 323.855 235.424 322.935 232.938C322.178 231.087 321.747 229.125 321.66 227.135C321.581 225.127 322.264 223.162 323.58 221.615C324.248 220.859 325.12 220.3 326.096 220.001C327.073 219.701 328.116 219.673 329.108 219.921L328.548 219.882Z" fill="#2F2E41"/>
<path d="M367.498 264.677C367.382 264.271 367.146 263.908 366.819 263.633C366.493 263.358 366.09 263.183 365.661 263.13C365.633 263.11 365.603 263.093 365.572 263.078L347.178 253.037C346.652 252.75 346.034 252.672 345.451 252.818C344.868 252.964 344.365 253.324 344.047 253.822L339.016 261.756L331.439 254.375L331.318 254.258C330.929 253.879 330.416 253.646 329.868 253.599C329.32 253.553 328.773 253.695 328.323 254.003L313.205 264.314C313.178 264.314 313.152 264.322 313.125 264.322C312.402 264.44 311.741 264.794 311.252 265.327C310.763 265.859 310.475 266.539 310.436 267.252L310.046 274.935H370.417L367.498 264.677Z" fill="#1976D2"/>
<path d="M401.192 273.741H389.544C389.544 273.425 389.415 273.121 389.185 272.897C388.955 272.673 388.643 272.547 388.318 272.547H384.64C384.315 272.547 384.003 272.673 383.773 272.897C383.543 273.121 383.414 273.425 383.414 273.741H379.736C379.736 273.425 379.607 273.121 379.377 272.897C379.147 272.673 378.835 272.547 378.51 272.547H374.832C374.506 272.547 374.195 272.673 373.965 272.897C373.735 273.121 373.605 273.425 373.605 273.741H369.927C369.927 273.425 369.798 273.121 369.568 272.897C369.338 272.673 369.026 272.547 368.701 272.547H365.023C364.698 272.547 364.386 272.673 364.156 272.897C363.926 273.121 363.797 273.425 363.797 273.741H360.119C360.119 273.425 359.99 273.121 359.76 272.897C359.53 272.673 359.218 272.547 358.893 272.547H355.215C354.889 272.547 354.577 272.673 354.348 272.897C354.118 273.121 353.988 273.425 353.988 273.741H350.31C350.31 273.425 350.181 273.121 349.951 272.897C349.721 272.673 349.409 272.547 349.084 272.547H345.406C345.081 272.547 344.769 272.673 344.539 272.897C344.309 273.121 344.18 273.425 344.18 273.741H340.502C340.502 273.425 340.373 273.121 340.143 272.897C339.913 272.673 339.601 272.547 339.276 272.547H335.597C335.272 272.547 334.961 272.673 334.731 272.897C334.501 273.121 334.371 273.425 334.371 273.741H330.693C330.693 273.425 330.564 273.121 330.334 272.897C330.104 272.673 329.792 272.547 329.467 272.547H325.789C325.464 272.547 325.152 272.673 324.922 272.897C324.692 273.121 324.563 273.425 324.563 273.741H320.885C320.885 273.425 320.756 273.121 320.526 272.897C320.296 272.673 319.984 272.547 319.659 272.547H315.98C315.655 272.547 315.343 272.673 315.114 272.897C314.884 273.121 314.754 273.425 314.754 273.741H311.076C311.076 273.425 310.947 273.121 310.717 272.897C310.487 272.673 310.175 272.547 309.85 272.547H306.172C305.847 272.547 305.535 272.673 305.305 272.897C305.075 273.121 304.946 273.425 304.946 273.741H301.268C301.268 273.425 301.139 273.121 300.909 272.897C300.679 272.673 300.367 272.547 300.042 272.547H296.363C296.038 272.547 295.726 272.673 295.497 272.897C295.267 273.121 295.137 273.425 295.137 273.741H291.459C291.459 273.425 291.33 273.121 291.1 272.897C290.87 272.673 290.558 272.547 290.233 272.547H286.555C286.23 272.547 285.918 272.673 285.688 272.897C285.458 273.121 285.329 273.425 285.329 273.741H273.681C272.707 273.743 271.773 274.121 271.084 274.793C270.396 275.464 270.009 276.375 270.009 277.324C270.009 278.273 270.396 279.184 271.084 279.855C271.773 280.527 272.707 280.905 273.681 280.906H401.192C402.167 280.906 403.103 280.529 403.793 279.857C404.483 279.185 404.87 278.274 404.87 277.324C404.87 276.374 404.483 275.463 403.793 274.791C403.103 274.119 402.167 273.741 401.192 273.741Z" fill="#3F3D56"/>
<path d="M254.72 252.936V276.725H193.531C191.892 276.78 190.258 276.514 188.727 275.941C187.195 275.368 185.798 274.501 184.618 273.391C183.438 272.281 182.5 270.951 181.859 269.48C181.218 268.01 180.888 266.428 180.888 264.83C180.888 263.233 181.218 261.651 181.859 260.181C182.5 258.71 183.438 257.38 184.618 256.27C185.798 255.16 187.195 254.293 188.727 253.72C190.258 253.147 191.892 252.881 193.531 252.936H254.72Z" fill="#F2F2F2"/>
<path d="M256.223 276.541C256.223 276.784 256.124 277.017 255.948 277.188C255.772 277.36 255.533 277.456 255.284 277.456H192.442C189.028 277.456 185.755 276.136 183.342 273.785C180.928 271.435 179.572 268.246 179.572 264.922C179.572 261.598 180.928 258.409 183.342 256.059C185.755 253.708 189.028 252.387 192.442 252.387H255.284C255.533 252.387 255.772 252.484 255.948 252.655C256.124 252.827 256.223 253.06 256.223 253.302C256.223 253.545 256.124 253.778 255.948 253.949C255.772 254.121 255.533 254.217 255.284 254.217H192.442C189.528 254.22 186.736 255.349 184.677 257.356C182.618 259.363 181.461 262.085 181.461 264.922C181.461 267.759 182.618 270.481 184.677 272.488C186.736 274.495 189.528 275.624 192.442 275.627H255.284C255.533 275.627 255.772 275.723 255.948 275.895C256.124 276.066 256.223 276.299 256.223 276.541Z" fill="#1976D2"/>
<path d="M254.72 258.426H188.966C188.941 258.426 188.917 258.421 188.894 258.412C188.871 258.403 188.85 258.39 188.832 258.373C188.815 258.356 188.801 258.336 188.791 258.313C188.782 258.291 188.777 258.267 188.777 258.243C188.777 258.219 188.782 258.195 188.791 258.173C188.801 258.15 188.815 258.13 188.832 258.113C188.85 258.096 188.871 258.083 188.894 258.074C188.917 258.064 188.941 258.06 188.966 258.06H254.72C254.77 258.06 254.817 258.08 254.852 258.114C254.887 258.148 254.907 258.195 254.907 258.243C254.907 258.291 254.887 258.338 254.852 258.372C254.817 258.406 254.77 258.426 254.72 258.426Z" fill="#CCCCCC"/>
<path d="M254.72 262.818H188.966C188.941 262.818 188.917 262.813 188.894 262.804C188.871 262.795 188.85 262.781 188.832 262.764C188.815 262.747 188.801 262.727 188.791 262.705C188.782 262.683 188.777 262.659 188.777 262.635C188.777 262.611 188.782 262.587 188.791 262.564C188.801 262.542 188.815 262.522 188.832 262.505C188.85 262.488 188.871 262.474 188.894 262.465C188.917 262.456 188.941 262.451 188.966 262.452H254.72C254.77 262.452 254.817 262.471 254.852 262.506C254.887 262.54 254.907 262.586 254.907 262.635C254.907 262.683 254.887 262.729 254.852 262.764C254.817 262.798 254.77 262.817 254.72 262.818Z" fill="#CCCCCC"/>
<path d="M254.72 267.209H188.966C188.941 267.209 188.917 267.205 188.894 267.196C188.871 267.187 188.85 267.173 188.832 267.156C188.815 267.139 188.801 267.119 188.791 267.097C188.782 267.074 188.777 267.05 188.777 267.026C188.777 267.002 188.782 266.978 188.791 266.956C188.801 266.934 188.815 266.913 188.832 266.896C188.85 266.879 188.871 266.866 188.894 266.857C188.917 266.848 188.941 266.843 188.966 266.843H254.72C254.77 266.844 254.817 266.863 254.852 266.897C254.887 266.932 254.907 266.978 254.907 267.026C254.907 267.075 254.887 267.121 254.852 267.155C254.817 267.19 254.77 267.209 254.72 267.209Z" fill="#CCCCCC"/>
<path d="M254.72 271.601H188.966C188.941 271.601 188.917 271.596 188.894 271.587C188.871 271.578 188.85 271.565 188.832 271.548C188.815 271.531 188.801 271.51 188.791 271.488C188.782 271.466 188.777 271.442 188.777 271.418C188.777 271.394 188.782 271.37 188.791 271.348C188.801 271.325 188.815 271.305 188.832 271.288C188.85 271.271 188.871 271.258 188.894 271.248C188.917 271.239 188.941 271.235 188.966 271.235H254.72C254.77 271.235 254.817 271.255 254.852 271.289C254.887 271.323 254.907 271.37 254.907 271.418C254.907 271.466 254.887 271.513 254.852 271.547C254.817 271.581 254.77 271.601 254.72 271.601Z" fill="#CCCCCC"/>
<path d="M243.186 227.874V251.662H181.997C180.357 251.718 178.723 251.451 177.192 250.879C175.66 250.306 174.263 249.439 173.083 248.329C171.903 247.219 170.965 245.889 170.324 244.418C169.683 242.947 169.353 241.366 169.353 239.768C169.353 238.171 169.683 236.589 170.324 235.118C170.965 233.648 171.903 232.318 173.083 231.208C174.263 230.098 175.66 229.231 177.192 228.658C178.723 228.085 180.357 227.819 181.997 227.874H243.186Z" fill="#F2F2F2"/>
<path d="M244.689 251.479C244.689 251.722 244.59 251.955 244.414 252.126C244.237 252.298 243.999 252.394 243.749 252.394H180.907C179.217 252.394 177.543 252.07 175.982 251.44C174.421 250.81 173.002 249.887 171.807 248.723C170.612 247.559 169.664 246.177 169.017 244.657C168.371 243.136 168.038 241.506 168.038 239.86C168.038 238.214 168.371 236.584 169.017 235.063C169.664 233.542 170.612 232.16 171.807 230.997C173.002 229.833 174.421 228.909 175.982 228.279C177.543 227.649 179.217 227.325 180.907 227.325H243.749C243.999 227.325 244.237 227.422 244.414 227.593C244.59 227.765 244.689 227.998 244.689 228.24C244.689 228.483 244.59 228.716 244.414 228.887C244.237 229.059 243.999 229.155 243.749 229.155H180.907C177.994 229.158 175.201 230.287 173.142 232.294C171.083 234.301 169.926 237.022 169.926 239.86C169.926 242.697 171.083 245.418 173.142 247.426C175.201 249.433 177.994 250.562 180.907 250.564H243.749C243.999 250.564 244.237 250.661 244.414 250.832C244.59 251.004 244.689 251.237 244.689 251.479Z" fill="#3F3D56"/>
<path d="M243.186 233.364H177.431C177.406 233.364 177.382 233.359 177.359 233.35C177.336 233.341 177.315 233.328 177.298 233.311C177.28 233.294 177.266 233.273 177.256 233.251C177.247 233.229 177.242 233.205 177.242 233.181C177.242 233.157 177.247 233.133 177.256 233.11C177.266 233.088 177.28 233.068 177.298 233.051C177.315 233.034 177.336 233.021 177.359 233.011C177.382 233.002 177.406 232.998 177.431 232.998H243.186C243.235 232.998 243.283 233.018 243.318 233.052C243.353 233.086 243.372 233.132 243.372 233.181C243.372 233.229 243.353 233.275 243.318 233.31C243.283 233.344 243.235 233.363 243.186 233.364Z" fill="#CCCCCC"/>
<path d="M243.186 237.755H177.431C177.406 237.756 177.382 237.751 177.359 237.742C177.336 237.733 177.315 237.719 177.298 237.702C177.28 237.685 177.266 237.665 177.256 237.643C177.247 237.621 177.242 237.597 177.242 237.572C177.242 237.548 177.247 237.524 177.256 237.502C177.266 237.48 177.28 237.46 177.298 237.443C177.315 237.426 177.336 237.412 177.359 237.403C177.382 237.394 177.406 237.389 177.431 237.389H243.186C243.235 237.39 243.283 237.409 243.318 237.444C243.353 237.478 243.372 237.524 243.372 237.572C243.372 237.621 243.353 237.667 243.318 237.701C243.283 237.736 243.235 237.755 243.186 237.755Z" fill="#CCCCCC"/>
<path d="M243.186 242.147H177.431C177.406 242.147 177.382 242.143 177.359 242.134C177.336 242.124 177.315 242.111 177.298 242.094C177.28 242.077 177.266 242.057 177.256 242.034C177.247 242.012 177.242 241.988 177.242 241.964C177.242 241.94 177.247 241.916 177.256 241.894C177.266 241.872 177.28 241.851 177.298 241.834C177.315 241.817 177.336 241.804 177.359 241.795C177.382 241.786 177.406 241.781 177.431 241.781H243.186C243.235 241.781 243.283 241.801 243.318 241.835C243.353 241.869 243.372 241.916 243.372 241.964C243.372 242.012 243.353 242.059 243.318 242.093C243.283 242.127 243.235 242.147 243.186 242.147Z" fill="#CCCCCC"/>
<path d="M243.186 246.539H177.431C177.406 246.539 177.382 246.534 177.359 246.525C177.336 246.516 177.315 246.503 177.298 246.486C177.28 246.469 177.266 246.448 177.256 246.426C177.247 246.404 177.242 246.38 177.242 246.356C177.242 246.332 177.247 246.308 177.256 246.285C177.266 246.263 177.28 246.243 177.298 246.226C177.315 246.209 177.336 246.195 177.359 246.186C177.382 246.177 177.406 246.173 177.431 246.173H243.186C243.235 246.173 243.283 246.192 243.318 246.227C243.353 246.261 243.372 246.307 243.372 246.356C243.372 246.404 243.353 246.45 243.318 246.485C243.283 246.519 243.235 246.538 243.186 246.539Z" fill="#CCCCCC"/>
<path d="M314.367 361.278V340.537C314.367 339.62 313.993 338.741 313.328 338.093C312.662 337.445 311.759 337.08 310.818 337.08H230.075C229.134 337.08 228.231 337.445 227.566 338.093C226.9 338.741 226.526 339.62 226.526 340.537V361.278H314.367Z" fill="#CCCCCC"/>
<path d="M314.367 369.056H226.526V395.847H314.367V369.056Z" fill="#00CBE7"/>
<path d="M226.526 403.625V424.366C226.526 425.283 226.9 426.162 227.566 426.81C228.231 427.458 229.134 427.823 230.075 427.823H310.818C311.759 427.823 312.662 427.458 313.328 426.81C313.993 426.162 314.367 425.283 314.367 424.366V403.625H226.526Z" fill="#3F3D56"/>
<path d="M270.003 352.636C271.473 352.636 272.665 351.475 272.665 350.044C272.665 348.612 271.473 347.451 270.003 347.451C268.533 347.451 267.341 348.612 267.341 350.044C267.341 351.475 268.533 352.636 270.003 352.636Z" fill="white"/>
<path d="M270.003 387.205C271.473 387.205 272.665 386.044 272.665 384.612C272.665 383.18 271.473 382.019 270.003 382.019C268.533 382.019 267.341 383.18 267.341 384.612C267.341 386.044 268.533 387.205 270.003 387.205Z" fill="white"/>
<path d="M270.146 421.041C271.616 421.041 272.808 419.88 272.808 418.449C272.808 417.017 271.616 415.856 270.146 415.856C268.676 415.856 267.484 417.017 267.484 418.449C267.484 419.88 268.676 421.041 270.146 421.041Z" fill="white"/>
<path d="M304.408 313.431V337.219H243.219C241.58 337.275 239.946 337.009 238.414 336.436C236.883 335.863 235.486 334.996 234.306 333.886C233.126 332.776 232.188 331.446 231.547 329.975C230.906 328.505 230.575 326.923 230.575 325.325C230.575 323.728 230.906 322.146 231.547 320.676C232.188 319.205 233.126 317.875 234.306 316.765C235.486 315.655 236.883 314.788 238.414 314.215C239.946 313.642 241.58 313.376 243.219 313.431H304.408Z" fill="#F2F2F2"/>
<path d="M305.911 337.036C305.911 337.279 305.812 337.512 305.636 337.683C305.46 337.855 305.221 337.951 304.972 337.951H242.129C240.439 337.953 238.764 337.629 237.201 337C235.639 336.371 234.219 335.448 233.023 334.284C231.827 333.12 230.878 331.737 230.23 330.216C229.583 328.695 229.25 327.064 229.25 325.417C229.25 323.77 229.583 322.139 230.23 320.618C230.878 319.096 231.827 317.714 233.023 316.55C234.219 315.386 235.639 314.463 237.201 313.834C238.764 313.204 240.439 312.881 242.129 312.882H304.972C305.221 312.882 305.46 312.979 305.636 313.15C305.812 313.322 305.911 313.555 305.911 313.797C305.911 314.04 305.812 314.273 305.636 314.444C305.46 314.616 305.221 314.712 304.972 314.712H242.129C239.216 314.715 236.423 315.844 234.364 317.851C232.305 319.858 231.149 322.579 231.149 325.417C231.149 328.254 232.305 330.976 234.364 332.983C236.423 334.99 239.216 336.119 242.129 336.121H304.972C305.221 336.122 305.46 336.218 305.636 336.39C305.812 336.561 305.911 336.794 305.911 337.036Z" fill="#3F3D56"/>
<path d="M304.408 318.921H238.654C238.629 318.921 238.604 318.916 238.581 318.907C238.559 318.898 238.538 318.885 238.52 318.868C238.502 318.851 238.489 318.83 238.479 318.808C238.469 318.786 238.465 318.762 238.465 318.738C238.465 318.714 238.469 318.69 238.479 318.668C238.489 318.645 238.502 318.625 238.52 318.608C238.538 318.591 238.559 318.578 238.581 318.568C238.604 318.559 238.629 318.555 238.654 318.555H304.408C304.458 318.555 304.505 318.575 304.54 318.609C304.575 318.643 304.595 318.69 304.595 318.738C304.595 318.786 304.575 318.833 304.54 318.867C304.505 318.901 304.458 318.92 304.408 318.921Z" fill="#CCCCCC"/>
<path d="M304.408 323.313H238.654C238.629 323.313 238.604 323.308 238.581 323.299C238.559 323.29 238.538 323.276 238.52 323.259C238.502 323.242 238.489 323.222 238.479 323.2C238.469 323.178 238.465 323.154 238.465 323.13C238.465 323.105 238.469 323.082 238.479 323.059C238.489 323.037 238.502 323.017 238.52 323C238.538 322.983 238.559 322.969 238.581 322.96C238.604 322.951 238.629 322.946 238.654 322.947H304.408C304.458 322.947 304.505 322.966 304.54 323.001C304.575 323.035 304.595 323.081 304.595 323.13C304.595 323.178 304.575 323.224 304.54 323.258C304.505 323.293 304.458 323.312 304.408 323.313Z" fill="#CCCCCC"/>
<path d="M304.408 327.704H238.654C238.629 327.704 238.604 327.7 238.581 327.691C238.559 327.681 238.538 327.668 238.52 327.651C238.502 327.634 238.489 327.614 238.479 327.592C238.469 327.569 238.465 327.545 238.465 327.521C238.465 327.497 238.469 327.473 238.479 327.451C238.489 327.429 238.502 327.408 238.52 327.391C238.538 327.374 238.559 327.361 238.581 327.352C238.604 327.343 238.629 327.338 238.654 327.338H304.408C304.458 327.339 304.505 327.358 304.54 327.392C304.575 327.427 304.595 327.473 304.595 327.521C304.595 327.57 304.575 327.616 304.54 327.65C304.505 327.684 304.458 327.704 304.408 327.704Z" fill="#CCCCCC"/>
<path d="M304.408 332.096H238.654C238.629 332.096 238.604 332.091 238.581 332.082C238.559 332.073 238.538 332.06 238.52 332.043C238.502 332.026 238.489 332.005 238.479 331.983C238.469 331.961 238.465 331.937 238.465 331.913C238.465 331.889 238.469 331.865 238.479 331.842C238.489 331.82 238.502 331.8 238.52 331.783C238.538 331.766 238.559 331.752 238.581 331.743C238.604 331.734 238.629 331.73 238.654 331.73H304.408C304.458 331.73 304.505 331.75 304.54 331.784C304.575 331.818 304.595 331.864 304.595 331.913C304.595 331.961 304.575 332.007 304.54 332.042C304.505 332.076 304.458 332.095 304.408 332.096Z" fill="#CCCCCC"/>
<path d="M221.919 158.17V6.50013C221.921 4.77679 222.624 3.1246 223.876 1.90601C225.127 0.687429 226.823 0.00196024 228.592 0H351.684C353.453 0.00197165 355.149 0.687445 356.401 1.90603C357.652 3.12461 358.355 4.77679 358.357 6.50013V158.17C358.355 159.893 357.652 161.545 356.401 162.764C355.149 163.982 353.453 164.668 351.684 164.67H228.592C226.823 164.668 225.127 163.982 223.876 162.764C222.624 161.545 221.921 159.893 221.919 158.17ZM228.592 1.44447C227.216 1.44597 225.897 1.97911 224.924 2.9269C223.951 3.87469 223.403 5.15975 223.402 6.50013V158.17C223.403 159.51 223.951 160.795 224.924 161.743C225.897 162.691 227.216 163.224 228.592 163.225H351.684C353.06 163.224 354.379 162.691 355.352 161.743C356.326 160.795 356.873 159.51 356.874 158.17V6.50013C356.873 5.15975 356.326 3.87469 355.352 2.9269C354.379 1.97911 353.06 1.44598 351.684 1.44447H228.592Z" fill="#3F3D56"/>
<path d="M297.041 69.6536V38.5111C297.042 37.6494 297.394 36.8233 298.019 36.214C298.645 35.6047 299.493 35.262 300.377 35.261H327.472C328.357 35.262 329.205 35.6047 329.831 36.214C330.456 36.8233 330.808 37.6494 330.809 38.5111V69.6536C330.808 70.5153 330.456 71.3414 329.831 71.9507C329.205 72.56 328.357 72.9027 327.472 72.9037H300.377C299.493 72.9027 298.645 72.56 298.019 71.9507C297.394 71.3414 297.042 70.5153 297.041 69.6536Z" fill="#00CBE7"/>
<path d="M244.393 84.0983V52.9558C244.394 52.0942 244.746 51.268 245.371 50.6587C245.997 50.0494 246.845 49.7067 247.73 49.7058H274.825C275.71 49.7067 276.558 50.0494 277.183 50.6587C277.809 51.268 278.161 52.0942 278.162 52.9558V84.0983C278.161 84.96 277.809 85.7861 277.183 86.3954C276.558 87.0047 275.71 87.3474 274.825 87.3484H247.73C246.845 87.3474 245.997 87.0047 245.371 86.3954C244.746 85.7861 244.394 84.96 244.393 84.0983Z" fill="#CCCCCC"/>
<path d="M286.659 128.155V97.0121C286.66 96.1505 287.012 95.3243 287.638 94.715C288.263 94.1057 289.112 93.763 289.996 93.7621H317.091C317.976 93.763 318.824 94.1057 319.45 94.715C320.075 95.3243 320.427 96.1505 320.428 97.0121V128.155C320.427 129.016 320.075 129.842 319.45 130.452C318.824 131.061 317.976 131.404 317.091 131.405H289.996C289.112 131.404 288.263 131.061 287.638 130.452C287.012 129.842 286.66 129.016 286.659 128.155Z" fill="#3F3D56"/>
<path d="M448.578 270.536H420.699C420.435 270.536 420.174 270.595 419.936 270.709L412.9 274.14C412.668 274.236 412.471 274.396 412.332 274.6C412.193 274.804 412.119 275.044 412.119 275.289C412.119 275.534 412.193 275.774 412.332 275.978C412.471 276.183 412.668 276.343 412.9 276.439L419.936 279.869C420.174 279.983 420.435 280.043 420.699 280.042H448.578C448.962 280.064 449.339 279.937 449.628 279.69C449.917 279.442 450.094 279.094 450.122 278.72V271.858C450.095 271.484 449.917 271.136 449.628 270.888C449.339 270.641 448.962 270.514 448.578 270.536Z" fill="#3F3D56"/>
<path d="M450.122 271.858V278.72C450.094 279.094 449.917 279.442 449.628 279.69C449.339 279.937 448.962 280.064 448.578 280.042H443.023V270.536H448.578C448.962 270.514 449.339 270.641 449.628 270.888C449.917 271.136 450.094 271.484 450.122 271.858Z" fill="#00CBE7"/>
<path d="M448.368 219.202C449.63 218.671 450.994 218.406 452.369 218.424C453.745 218.442 455.1 218.744 456.348 219.308C457.595 219.872 458.706 220.686 459.608 221.698C460.509 222.709 461.181 223.895 461.58 225.177C461.704 225.584 461.799 225.998 461.864 226.417L500.849 245.247L509.872 239.423L521.097 252.011L507.321 262.909C505.665 264.209 503.622 264.954 501.496 265.034C499.37 265.114 497.274 264.524 495.519 263.352L455.965 236.71C455.671 236.831 455.37 236.938 455.065 237.03C453.748 237.417 452.362 237.53 450.998 237.36C449.634 237.19 448.322 236.74 447.148 236.042C445.974 235.343 444.965 234.411 444.187 233.306C443.409 232.202 442.88 230.949 442.633 229.631C442.56 229.249 442.512 228.862 442.489 228.474C442.379 226.528 442.884 224.597 443.935 222.939C444.986 221.282 446.533 219.977 448.368 219.202Z" fill="#FFB8B8"/>
<path d="M529.567 335.135H486.969C486.969 336.327 443.066 337.295 443.066 337.295C442.377 337.801 441.749 338.38 441.194 339.024C439.526 340.961 438.615 343.409 438.621 345.937V347.666C438.622 350.53 439.79 353.278 441.87 355.303C443.95 357.329 446.77 358.467 449.712 358.468H529.567C532.508 358.466 535.327 357.327 537.407 355.302C539.486 353.276 540.656 350.53 540.658 347.666V345.937C540.654 343.073 539.484 340.328 537.405 338.303C535.326 336.278 532.507 335.139 529.567 335.135Z" fill="#3F3D56"/>
<path d="M483.23 430.633H494.765V358.039H483.23V430.633Z" fill="#3F3D56"/>
<path d="M450.401 430.238C450.401 431.452 467.88 430.708 489.441 430.708C511.002 430.708 528.481 431.452 528.481 430.238C528.481 429.025 511.002 419.398 489.441 419.398C467.88 419.398 450.401 429.025 450.401 430.238Z" fill="#3F3D56"/>
<path d="M460.813 421.73L449.936 421.729L444.76 394.25L460.815 394.251L460.813 421.73Z" fill="#FFB8B8"/>
<path d="M463.588 432L428.513 431.999V431.567C428.513 429.82 428.866 428.091 429.552 426.478C430.238 424.865 431.244 423.399 432.511 422.164C433.779 420.929 435.284 419.95 436.941 419.282C438.597 418.614 440.372 418.27 442.165 418.27H442.166L463.588 418.271L463.588 432Z" fill="#2F2E41"/>
<path d="M444.544 404.689L422.858 357.324C421.047 353.332 420.847 348.822 422.297 344.692C423.747 340.563 426.741 337.117 430.682 335.041L477.72 310.473L499.185 308.695L518.984 306.942L519.127 307.178C519.309 307.478 523.566 314.64 520.689 322.493C518.506 328.45 512.828 333.102 503.814 336.322C482.772 343.837 458.465 350.259 448.992 352.671C448.573 352.775 448.182 352.965 447.844 353.227C447.506 353.489 447.228 353.818 447.03 354.192C446.831 354.562 446.713 354.967 446.683 355.384C446.653 355.8 446.712 356.218 446.856 356.611L467.003 400.698C467.213 401.257 467.289 401.856 467.224 402.448C467.159 403.041 466.956 403.61 466.629 404.114C466.303 404.617 465.862 405.041 465.341 405.352C464.819 405.663 464.232 405.854 463.623 405.909L448.569 406.977C448.441 406.988 448.314 406.994 448.187 406.994C447.416 406.994 446.662 406.776 446.015 406.367C445.368 405.958 444.857 405.375 444.544 404.689Z" fill="#2F2E41"/>
<path d="M466.137 421.73L455.26 421.729L450.084 394.25L466.139 394.251L466.137 421.73Z" fill="#FFB8B8"/>
<path d="M468.911 432L433.836 431.999V431.567C433.836 429.82 434.19 428.091 434.876 426.478C435.562 424.865 436.567 423.399 437.835 422.164C439.103 420.929 440.608 419.95 442.264 419.282C443.921 418.614 445.696 418.27 447.489 418.27H447.49L468.912 418.271L468.911 432Z" fill="#2F2E41"/>
<path d="M450.755 407.282L429.069 359.917C427.258 355.924 427.058 351.414 428.508 347.285C429.958 343.155 432.952 339.71 436.893 337.633L483.931 313.066L505.396 311.288L525.195 309.535L525.338 309.77C525.52 310.071 529.777 317.233 526.9 325.086C524.717 331.042 519.039 335.695 510.025 338.915C488.983 346.429 464.677 352.852 455.203 355.264C454.784 355.368 454.393 355.558 454.055 355.82C453.717 356.082 453.439 356.411 453.241 356.785C453.042 357.154 452.924 357.56 452.894 357.976C452.864 358.393 452.923 358.81 453.067 359.203L473.214 403.291C473.424 403.85 473.5 404.449 473.435 405.041C473.37 405.633 473.167 406.203 472.84 406.706C472.514 407.21 472.073 407.634 471.552 407.945C471.03 408.256 470.443 408.447 469.834 408.502L454.78 409.569C454.652 409.581 454.525 409.587 454.398 409.587C453.627 409.587 452.873 409.369 452.226 408.96C451.579 408.551 451.068 407.968 450.755 407.282Z" fill="#2F2E41"/>
<path d="M439.946 262.586C430.833 250.78 423.629 237.685 418.584 223.756C418.292 222.922 418.313 222.015 418.643 221.196C418.973 220.376 419.591 219.697 420.387 219.28L451.571 203.005C452.075 202.74 452.635 202.59 453.208 202.567C453.781 202.545 454.351 202.65 454.876 202.874C455.411 203.101 455.885 203.443 456.264 203.875C456.642 204.307 456.915 204.817 457.06 205.367C460.69 218.789 467.512 231.191 476.976 241.569C477.365 241.992 477.651 242.495 477.81 243.041C477.97 243.587 478 244.162 477.897 244.721C477.798 245.271 477.572 245.792 477.235 246.244C476.899 246.696 476.46 247.067 475.954 247.329L444.77 263.603C443.973 264.018 443.05 264.143 442.167 263.957C441.283 263.77 440.496 263.285 439.946 262.586Z" fill="#CCCCCC"/>
<path d="M442.074 261.029C442.241 261.233 442.477 261.373 442.74 261.426C443.002 261.479 443.276 261.441 443.513 261.318L474.697 245.043C474.848 244.967 474.979 244.857 475.08 244.722C475.18 244.588 475.247 244.432 475.276 244.268C475.308 244.095 475.299 243.917 475.249 243.748C475.199 243.579 475.11 243.423 474.988 243.293C465.245 232.61 458.222 219.842 454.485 206.024C454.442 205.854 454.359 205.695 454.242 205.561C454.125 205.426 453.978 205.32 453.813 205.251C453.656 205.183 453.486 205.151 453.315 205.158C453.144 205.165 452.977 205.21 452.827 205.29L421.644 221.565C421.408 221.689 421.224 221.89 421.123 222.132C421.023 222.375 421.013 222.644 421.094 222.893C426.049 236.573 433.124 249.434 442.074 261.029Z" fill="white"/>
<path d="M543.543 258.245L519.121 267.284L513.158 251.152C512.367 249.01 512.378 246.664 513.19 244.529C514.002 242.395 515.563 240.608 517.597 239.486C519.654 238.35 522.06 237.969 524.381 238.41C526.702 238.851 528.784 240.086 530.251 241.892L543.543 258.245Z" fill="#6C63FF"/>
<path d="M481.425 322.162C480.911 321.808 480.48 321.351 480.161 320.823C479.842 320.294 479.643 319.705 479.576 319.095C476.448 290.654 478.627 268.397 486.236 251.052C487.576 248.06 489.595 245.403 492.141 243.28C494.687 241.158 497.694 239.625 500.935 238.797L520.677 237.827L520.779 237.875C525.234 240 528.867 243.467 531.14 247.762C533.412 252.056 534.203 256.95 533.396 261.717C527.046 278.019 521.729 294.992 525.784 308.684C525.954 309.256 526.004 309.856 525.93 310.448C525.856 311.039 525.66 311.61 525.355 312.126C525.058 312.625 524.66 313.059 524.184 313.403C523.709 313.746 523.166 313.991 522.59 314.122L484.988 322.834C484.379 322.975 483.747 322.988 483.132 322.872C482.518 322.756 481.935 322.514 481.425 322.162Z" fill="#00CBE7"/>
<path d="M514.088 230.645C526.124 230.645 535.881 221.142 535.881 209.419C535.881 197.696 526.124 188.193 514.088 188.193C502.053 188.193 492.296 197.696 492.296 209.419C492.296 221.142 502.053 230.645 514.088 230.645Z" fill="#FFB8B8"/>
<path d="M453.618 226.23L436.634 233.533C435.988 233.81 435.255 233.826 434.597 233.577C433.939 233.329 433.409 232.836 433.124 232.208L432.704 231.281C432.419 230.652 432.403 229.939 432.658 229.298C432.913 228.657 433.418 228.14 434.064 227.862L451.048 220.56C451.694 220.283 452.426 220.267 453.084 220.515C453.742 220.764 454.272 221.256 454.558 221.885L454.978 222.812C455.262 223.441 455.279 224.154 455.024 224.795C454.769 225.436 454.263 225.952 453.618 226.23Z" fill="#CCCCCC"/>
<path d="M459.829 237.465L442.845 244.767C442.199 245.044 441.466 245.06 440.808 244.812C440.15 244.564 439.62 244.071 439.335 243.443L438.914 242.516C438.63 241.887 438.614 241.173 438.869 240.532C439.124 239.891 439.629 239.375 440.275 239.097L457.259 231.795C457.905 231.518 458.637 231.502 459.295 231.75C459.953 231.999 460.483 232.491 460.769 233.12L461.189 234.046C461.473 234.676 461.49 235.389 461.235 236.03C460.98 236.671 460.474 237.187 459.829 237.465Z" fill="#CCCCCC"/>
<path d="M472.926 281.347L435.062 252.253C434.761 252.356 434.454 252.444 434.143 252.517C432.806 252.822 431.419 252.849 430.071 252.597C428.723 252.345 427.445 251.82 426.319 251.055C425.186 250.29 424.233 249.298 423.525 248.146C422.817 246.993 422.37 245.706 422.214 244.372C421.96 242.239 422.454 240.084 423.615 238.259C424.776 236.433 426.536 235.043 428.61 234.314C429.905 233.862 431.283 233.681 432.654 233.784C434.026 233.886 435.359 234.27 436.568 234.909C437.776 235.549 438.832 236.43 439.667 237.494C440.501 238.559 441.096 239.783 441.411 241.087C441.508 241.501 441.576 241.92 441.614 242.342L479.307 263.522L488.687 258.262L499.078 271.512L484.514 281.623C482.809 282.796 480.761 283.404 478.673 283.354C476.586 283.305 474.571 282.601 472.926 281.347Z" fill="#FFB8B8"/>
<path d="M503.698 275.638L482.094 261.329L492.247 247.323C493.595 245.463 495.575 244.128 497.837 243.552C500.098 242.976 502.496 243.198 504.606 244.177C506.74 245.168 508.441 246.87 509.4 248.975C510.359 251.08 510.513 253.45 509.836 255.656L503.698 275.638Z" fill="#00CBE7"/>
<path d="M506.099 206.257C500.497 209.991 493.143 213.829 487.422 209.853C483.666 207.242 482.482 202.408 484.006 198.165C486.745 190.535 494.271 187.176 501.468 184.601C510.824 181.254 521.011 178.591 530.669 180.989C540.328 183.386 548.864 192.494 547.12 202.052C545.718 209.738 538.274 216.134 539.331 223.873C540.394 231.661 549.387 235.761 557.326 237.153C565.265 238.545 574.149 238.992 579.855 244.546C587.133 251.632 585.316 264.297 578.467 271.777C571.618 279.258 561.283 282.649 551.268 284.955C538 288.009 523.648 289.614 511.046 284.545C498.444 279.476 488.637 265.831 492.288 253.036C493.83 247.631 497.462 243.064 500.973 238.617C504.484 234.17 508.038 229.52 509.378 224.065C510.494 219.518 509.668 214.24 506.572 210.829C506.009 210.233 505.655 209.477 505.56 208.672C505.465 207.867 505.635 207.053 506.045 206.347L506.099 206.257Z" fill="#2F2E41"/>
<path d="M96.7779 309.387C91.1624 311.31 85.1332 311.791 79.2711 310.785C73.409 309.78 67.9116 307.32 63.3086 303.644C51.5858 294.061 47.9104 278.272 44.9198 263.653C41.9713 249.239 39.0228 234.825 36.0742 220.412L54.5933 232.832C67.9111 241.763 81.529 250.981 90.7502 263.918C99.9714 276.855 103.996 294.516 96.5875 308.514" fill="#E6E6E6"/>
<path d="M95.1949 361.74C97.0693 348.442 98.9967 334.973 97.6819 321.532C96.5142 309.596 92.7753 297.937 85.1633 288.377C81.1229 283.313 76.2065 278.974 70.6351 275.555C69.1823 274.661 67.8451 276.904 69.2916 277.793C78.9317 283.727 86.388 292.49 90.5854 302.818C95.2213 314.303 95.9658 326.822 95.167 339.023C94.6838 346.401 93.6599 353.73 92.6281 361.05C92.5468 361.381 92.5975 361.73 92.7701 362.026C92.9426 362.322 93.2241 362.543 93.5577 362.645C93.898 362.734 94.2607 362.689 94.5672 362.52C94.8737 362.35 95.0993 362.07 95.1949 361.74H95.1949Z" fill="#F2F2F2"/>
<path d="M77.1413 338.208C74.7329 341.774 71.4224 344.675 67.5287 346.632C63.6351 348.59 59.2895 349.537 54.9106 349.384C43.6571 348.864 34.2752 341.214 25.8298 333.951L0.849854 312.469L17.3824 311.698C29.2717 311.144 41.4677 310.627 52.7918 314.198C64.1159 317.769 74.5595 326.364 76.6302 337.78" fill="#E6E6E6"/>
<path d="M100.492 369.384C91.4704 353.836 81.0061 336.556 62.308 331.033C57.1091 329.502 51.6576 328.954 46.2473 329.418C44.5421 329.561 44.9679 332.121 46.67 331.978C55.7389 331.245 64.7904 333.577 72.3005 338.583C79.5273 343.374 85.1542 350.035 89.9167 357.099C92.8339 361.425 95.4469 365.936 98.0605 370.44C98.8957 371.879 101.337 370.84 100.492 369.384Z" fill="#F2F2F2"/>
<path d="M114.947 385.75C114.643 382.319 113.379 379.036 111.291 376.257C109.204 373.478 106.373 371.31 103.109 369.989V361.001H87.63V370.272C84.5257 371.658 81.8542 373.82 79.8877 376.539C77.9212 379.258 76.7301 382.436 76.4358 385.75L72.7962 426.958H118.587L114.947 385.75Z" fill="#00CBE7"/>
</g>
<defs>
<clipPath id="clip0">
<rect width="614" height="432" fill="white"/>
</clipPath>
</defs>
</svg>
