<svg width="557" height="548" viewBox="0 0 557 548" fill="none" xmlns="http://www.w3.org/2000/svg">
<rect width="557" height="548" rx="105" fill="#3A3A3A"/>
<path d="M165 172C165 165.373 170.373 160 177 160H203C209.627 160 215 165.373 215 172V198C215 204.627 209.627 210 203 210H177C170.373 210 165 204.627 165 198V172Z" fill="white"/>
<path d="M165 348C165 341.373 170.373 336 177 336H203C209.627 336 215 341.373 215 348V374C215 380.627 209.627 386 203 386H177C170.373 386 165 380.627 165 374V348Z" fill="#00E0FF"/>
<path d="M345.5 172C345.5 167.306 349.306 163.5 354 163.5H380C384.694 163.5 388.5 167.306 388.5 172V198C388.5 202.694 384.694 206.5 380 206.5H354C349.306 206.5 345.5 202.694 345.5 198V172Z" stroke="white" stroke-width="7"/>
<path d="M136 150C136 139.507 144.507 131 155 131H225C235.493 131 244 139.507 244 150V220C244 230.493 235.493 239 225 239H155C144.507 239 136 230.493 136 220V150Z" stroke="white" stroke-width="12"/>
<path d="M316.5 162C316.5 146.812 328.812 134.5 344 134.5H390C405.188 134.5 417.5 146.812 417.5 162V208C417.5 223.188 405.188 235.5 390 235.5H344C328.812 235.5 316.5 223.188 316.5 208V162Z" stroke="white" stroke-width="19"/>
<path d="M132.5 326C132.5 313.574 142.574 303.5 155 303.5H225C237.426 303.5 247.5 313.574 247.5 326V396C247.5 408.426 237.426 418.5 225 418.5H155C142.574 418.5 132.5 408.426 132.5 396V326Z" stroke="white" stroke-width="5"/>
<rect x="307" y="268" width="55" height="12" rx="6" fill="#00E0FF"/>
<rect x="302" y="410" width="31" height="12" rx="6" fill="#E5E5E5"/>
<rect x="371" y="394" width="31" height="12" rx="6" fill="white"/>
<rect x="302" y="374" width="57" height="12" rx="6" fill="white"/>
<rect x="402" y="342" width="64" height="12" rx="6" transform="rotate(90 402 342)" fill="white"/>
<rect x="314" y="342" width="79" height="12" rx="6" transform="rotate(90 314 342)" fill="#BDBDBD"/>
<rect x="372" y="268" width="55" height="12" rx="6" fill="white"/>
<rect x="302" y="342" width="125" height="12" rx="6" fill="#E5E5E5"/>
<rect x="302" y="301" width="125" height="12" rx="6" fill="#BDBDBD"/>
<rect x="130" y="268" width="154" height="12" rx="6" fill="#BDBDBD"/>
<rect x="263" y="301" width="12" height="120" rx="6" fill="#E5E5E5"/>
<rect x="272" y="125" width="12" height="155" rx="6" fill="#BDBDBD"/>
<rect x="415" y="301" width="12" height="120" rx="6" fill="#E5E5E5"/>
<path d="M123.5 102.5H249C259.5 102.5 260 85.9999 249 85.9999H123.5C100.974 85.9999 86 93.4736 85.9999 116C85.9998 163.5 85.9998 228.5 85.9999 244C86 259.5 104 259.5 104 244L104 116C104 105.749 113.249 102.5 123.5 102.5Z" fill="#00E0FF"/>
<path d="M448.843 125.481L447.217 250.971C447.081 261.47 463.573 262.183 463.715 251.184L465.341 125.695C465.633 103.17 458.354 88.1012 435.83 87.8093C388.334 87.1937 323.339 86.3515 307.841 86.1507C292.342 85.9499 292.109 103.948 307.607 104.149L435.597 105.808C445.847 105.941 448.976 115.231 448.843 125.481Z" fill="#5B5B5B"/>
<path d="M426.689 444.156L301.189 444.259C290.689 444.267 290.203 460.768 301.203 460.759L426.703 460.656C449.229 460.637 464.197 453.151 464.178 430.625C464.139 383.125 464.086 318.125 464.073 302.625C464.06 287.125 446.06 287.14 446.073 302.64L446.178 430.64C446.187 440.891 436.94 444.147 426.689 444.156Z" fill="#00E0FF"/>
<path d="M102.882 421.725L104.162 296.231C104.269 285.732 87.7746 285.064 87.6624 296.063L86.3825 421.557C86.1527 444.082 93.4733 459.131 115.998 459.361C163.496 459.845 228.493 460.508 243.992 460.666C259.491 460.824 259.675 442.825 244.175 442.667L116.182 441.362C105.932 441.257 102.777 431.975 102.882 421.725Z" fill="#5B5B5B"/>
</svg>
